<svg xmlns = "http://www.w3.org/2000/svg">  

  <symbol id="eye1" viewBox="0 0 152 152">
    <defs>
      <style>
        .eye1 {
          fill: #231f20;
          stroke-width: 2px;
        }
      </style>
    </defs>
    <path class="eye1" d="M76,152C34.09,152,0,117.91,0,76S34.09,0,76,0s76,34.09,76,76-34.09,76-76,76ZM76,2C35.2,2,2,35.2,2,76s33.2,74,74,74,74-33.2,74-74S116.8,2,76,2ZM76,1c-5.18,0-9.37,33.58-9.37,75s4.2,75,9.37,75,9.37-33.58,9.37-75S81.18,1,76,1ZM76,152c-1.3,0-4.76,0-7.62-22.84-1.77-14.21-2.75-33.08-2.75-53.16s.98-38.95,2.75-53.16C71.24,0,74.7,0,76,0s4.76,0,7.62,22.84c1.77,14.21,2.75,33.08,2.75,53.16s-.98,38.95-2.75,53.16c-2.85,22.84-6.32,22.84-7.62,22.84ZM76,2s-3.03.24-5.63,21.09c-1.77,14.13-2.74,32.92-2.74,52.91s.97,38.78,2.74,52.91c2.6,20.85,5.6,21.09,5.63,21.09s3.03-.24,5.63-21.09c1.77-14.13,2.74-32.92,2.74-52.91s-.97-38.78-2.74-52.91c-2.6-20.85-5.6-21.09-5.63-21.09Z"/>
  </symbol>

  <symbol id="eye2" viewBox="0 0 152 152">
    <defs>
      <style>
        .eye2{
          fill: #231f20;
          stroke-width: 0px;
        }
      </style>
    </defs>
    <path class="eye2" d="M76,152C34.09,152,0,117.91,0,76S34.09,0,76,0s76,34.09,76,76-34.09,76-76,76ZM76,1.97C35.18,1.97,1.97,35.18,1.97,76s33.21,74.03,74.03,74.03,74.03-33.21,74.03-74.03S116.82,1.97,76,1.97ZM75.44,142.59c-37.35,0-67.74-28.95-67.74-64.53S38.09,13.52,75.44,13.52s67.74,28.95,67.74,64.53-30.39,64.53-67.74,64.53ZM75.44,15.49c-36.26,0-65.76,28.06-65.76,62.56s29.5,62.56,65.76,62.56,65.76-28.06,65.76-62.56S111.7,15.49,75.44,15.49ZM76,130.3c-30.33,0-55-23.44-55-52.25s24.67-52.25,55-52.25,55,23.44,55,52.25-24.67,52.25-55,52.25ZM76,27.78c-29.24,0-53.02,22.55-53.02,50.28s23.79,50.28,53.02,50.28,53.02-22.55,53.02-50.28-23.79-50.28-53.02-50.28ZM76,65.63c-6.31,0-11.42,5.11-11.42,11.42s5.11,11.42,11.42,11.42,11.42-5.11,11.42-11.42-5.11-11.42-11.42-11.42ZM76,88.96c-6.57,0-11.91-5.34-11.91-11.91s5.34-11.91,11.91-11.91,11.91,5.34,11.91,11.91-5.34,11.91-11.91,11.91ZM76,66.13c-6.02,0-10.92,4.9-10.92,10.92s4.9,10.92,10.92,10.92,10.92-4.9,10.92-10.92-4.9-10.92-10.92-10.92ZM76,115.27c-21.66,0-39.27-17.62-39.27-39.27s17.62-39.27,39.27-39.27,39.27,17.62,39.27,39.27-17.62,39.27-39.27,39.27ZM76,38.7c-20.57,0-37.3,16.73-37.3,37.3s16.73,37.3,37.3,37.3,37.3-16.73,37.3-37.3-16.73-37.3-37.3-37.3Z"/>
  </symbol>

  <symbol id="eye3" viewBox="0 0 152 152">
      <defs>
      <style>
        .eye3 {
          fill: #231f20;
          stroke-width: 0px;
        }
      </style>
    </defs>
    <path class="eye3" d="M84.04,146.46c-36.37,0-65.96-31.98-65.96-71.3S47.68,3.86,84.04,3.86s65.96,31.99,65.96,71.3-29.59,71.3-65.96,71.3ZM84.04,6.6c-34.83,0-63.16,30.76-63.16,68.57s28.33,68.57,63.16,68.57,63.16-30.76,63.16-68.57S118.87,6.6,84.04,6.6Z"/>
    <path class="eye3" d="M75,150C33.64,150,0,116.35,0,75S33.64,0,75,0s75,33.64,75,75-33.65,75-75,75ZM75,2.73C35.19,2.73,2.8,35.15,2.8,75s32.39,72.27,72.2,72.27,72.2-32.42,72.2-72.27S114.81,2.73,75,2.73Z"/>
    <g>
      <ellipse class="eye3" cx="99.55" cy="75.16" rx="49.05" ry="47.92"/>
      <path class="eye3" d="M99.55,124.45c-27.82,0-50.45-22.11-50.45-49.28s22.63-49.28,50.45-49.28,50.45,22.11,50.45,49.28-22.63,49.28-50.45,49.28ZM99.55,28.61c-26.28,0-47.65,20.88-47.65,46.55s21.38,46.55,47.65,46.55,47.65-20.88,47.65-46.55-21.38-46.55-47.65-46.55Z"/>
    </g>
  </symbol>
  
  <symbol id = "eye4" viewBox="0 0 152 152">
    <defs>
      <style>
        .eye4 {
          fill: #231f20;
          stroke-width: 0px;
        }
      </style>
    </defs>
    <path class="eye4" d="M76,152C34.09,152,0,117.91,0,76S34.09,0,76,0s76,34.09,76,76-34.09,76-76,76ZM76,2.19C35.3,2.19,2.19,35.3,2.19,76s33.11,73.81,73.81,73.81,73.81-33.11,73.81-73.81S116.7,2.19,76,2.19Z"/>
    <g>
      <g>
        <rect class="eye4" x="63.63" y="38.73" width="24.74" height="74.54"/>
        <path class="eye4" d="M89.33,114.21h-26.66V37.79h26.66v76.41ZM64.59,112.33h22.82V39.67h-22.82v72.66Z"/>
      </g>
      <g>
        <rect class="eye4" x="63.93" y="37.79" width="24.13" height="76.42" transform="translate(152 0) rotate(90)"/>
        <path class="eye4" d="M115.17,89H36.83v-26.01h78.34v26.01ZM38.75,87.13h74.5v-22.26H38.75v22.26Z"/>
      </g>
    </g>
  </symbol>

  <symbol id="eye5" viewBox="0 0 152 152">
    <defs>
      <style>
        .eye5 {
          fill: #231f20;
          stroke-width: 0px;
        }
      </style>
    </defs>
    <g>
      <g>
        <path class="eye5" d="M65.44,93.37l1.58-13.73-9.51-9.1,12.5-2.6,5.17-12.74,6.25,12.18,12.68,1.34-8.7,10.02,2.75,13.49-11.63-5.86-11.09,7.01ZM61.64,71.72l7.48,7.16-1.22,10.57,8.52-5.38,8.96,4.51-2.12-10.42,6.83-7.87-9.94-1.05-4.75-9.25-3.93,9.69-9.82,2.04Z"/>
        <path class="eye5" d="M56.93,108.67l2.97-24.75-17.16-16.57,22.66-4.59,9.41-22.88,11.14,21.97,22.94,2.55-15.83,18.06,4.86,24.38-20.93-10.69-20.05,12.53ZM46.86,68.55l15.13,14.62-2.59,21.59,17.47-10.91,18.27,9.32-4.24-21.3,13.95-15.92-20.21-2.25-9.65-19.04-8.16,19.83-19.97,4.04Z"/>
        <path class="eye5" d="M47.1,125.72l4.7-36.98-25.55-24.56,34.02-7.13,14.31-34.21,16.43,32.6,34.39,3.53-23.93,27.19,7.01,36.3-31.21-15.68-30.16,18.93ZM30.36,65.37l23.55,22.63-4.29,33.78,27.53-17.29,28.58,14.36-6.43-33.27,22.02-25.01-31.61-3.25-14.97-29.7-13.04,31.17-31.34,6.57Z"/>
      </g>
      <g>
        <path class="eye5" d="M79.37,91.33l-5.17-12.74-12.5-2.6,9.51-9.1-1.58-13.73,11.09,7.01,11.63-5.86-2.75,13.49,8.7,10.02-12.68,1.34-6.25,12.18ZM65.83,74.8l9.82,2.04,3.93,9.69,4.75-9.25,9.94-1.05-6.83-7.87,2.12-10.42-8.96,4.52-8.52-5.38,1.22,10.57-7.48,7.16Z"/>
        <path class="eye5" d="M77.74,109.24l-9.2-22.98-22.61-4.82,17.3-16.39-2.74-24.78,19.94,12.74,21.03-10.46-5.08,24.33,15.66,18.22-22.96,2.31-11.34,21.85ZM50.06,80.27l19.94,4.25,7.98,19.92,9.83-18.94,20.22-2.03-13.81-16.06,4.44-21.26-18.35,9.13-17.37-11.09,2.39,21.61-15.27,14.46Z"/>
        <path class="eye5" d="M76.09,128.49l-13.86-34.04-34.13-7.2,26.1-24.34-4.16-36.75,30.03,18.9,31.65-15.49-7.62,36.07,23.66,27.1-34.65,3.4-17.02,32.33ZM32.27,86.09l31.4,6.62,12.64,31.04,15.52-29.48,31.86-3.13-21.76-24.93,6.98-33.04-28.97,14.18-27.45-17.28,3.8,33.61-24.02,22.41Z"/>
      </g>
    </g>
    <path class="eye5" d="M76,152C34.09,152,0,117.91,0,76S34.09,0,76,0s76,34.09,76,76-34.09,76-76,76ZM76,2C35.2,2,2,35.2,2,76s33.2,74,74,74,74-33.2,74-74S116.8,2,76,2Z"/>
</symbol>
    
</svg>
