<svg xmlns="http://www.w3.org/2000/svg" viewBox="0 0 633.34 566.67">
<title>Heart Gem </title>
  <defs>
    <style>
    .cls-1{fill: rgb(85, 180, 234);}
    </style>
  </defs>
    <path class="cls-1" d="M316.67,566.67c-3.86,0-7.73-1.34-10.85-4.01l-233.33-200c-2.29-1.97-4.01-4.52-4.96-7.38L.86,155.27c-1.63-4.88-.91-10.24,1.94-14.52L69.47,40.76c2.06-3.08,5.08-5.39,8.6-6.57L178.07.86c4.71-1.57,9.89-.96,14.1,1.68l124.5,77.81L441.17,2.54c4.21-2.63,9.38-3.25,14.1-1.68l100,33.33c3.52,1.17,6.54,3.48,8.6,6.57l66.67,100c2.85,4.28,3.57,9.64,1.94,14.52l-66.67,200c-.96,2.87-2.67,5.42-4.96,7.38l-233.33,200c-3.12,2.67-6.98,4.01-10.85,4.01ZM97.69,340.35l218.98,187.7,218.98-187.7,62.63-187.89-58.97-88.46-87.13-29.04-126.68,79.17c-5.4,3.38-12.26,3.38-17.67,0l-126.68-79.17-87.13,29.04-58.97,88.46,62.63,187.89ZM550,350h0,0Z"/>
    <path class="cls-1" d="M316.67,400c-3.4,0-6.79-1.04-9.69-3.1l-116.67-83.33c-2.59-1.85-4.6-4.41-5.79-7.37l-33.33-83.33c-2.16-5.4-1.35-11.54,2.14-16.19l50-66.67c4.83-6.44,13.58-8.51,20.79-4.91l92.55,46.27,92.55-46.27c7.2-3.6,15.95-1.54,20.79,4.91l50,66.67c3.49,4.65,4.3,10.79,2.14,16.19l-33.33,83.33c-1.18,2.96-3.19,5.52-5.79,7.37l-116.67,83.33c-2.9,2.07-6.29,3.1-9.69,3.1ZM213.67,289.28l103.01,73.58,103.01-73.58,28.04-70.1-36.03-48.05-87.56,43.78c-4.69,2.35-10.21,2.35-14.91,0l-87.56-43.78-36.03,48.05,28.04,70.1ZM433.34,300h0,0Z"/>
    <path class="cls-1" d="M416.68,166.67c-1.34,0-2.7-.16-4.05-.5-8.93-2.23-14.36-11.28-12.13-20.21L433.83,12.63c2.23-8.93,11.29-14.36,20.21-12.13,8.93,2.23,14.36,11.28,12.13,20.21l-33.33,133.33c-1.89,7.57-8.69,12.63-16.16,12.63Z"/>
    <path class="cls-1" d="M216.66,166.67c-7.47,0-14.26-5.05-16.16-12.63L167.17,20.71c-2.23-8.93,3.2-17.98,12.13-20.21,8.93-2.23,17.98,3.2,20.21,12.13l33.33,133.33c2.23,8.93-3.2,17.98-12.13,20.21-1.36.34-2.72.5-4.05.5Z"/>
    <path class="cls-1" d="M316.67,216.67c-9.21,0-16.67-7.46-16.67-16.67v-100c0-9.21,7.46-16.67,16.67-16.67s16.67,7.46,16.67,16.67v100c0,9.21-7.46,16.67-16.67,16.67Z"/>
    <path class="cls-1" d="M166.66,233.34c-2.26,0-4.56-.46-6.76-1.44L9.9,165.23c-8.41-3.74-12.2-13.59-8.46-22,3.74-8.41,13.59-12.2,22-8.46l150,66.67c8.41,3.74,12.2,13.59,8.46,22-2.76,6.21-8.85,9.9-15.24,9.9Z"/>
    <path class="cls-1" d="M466.68,233.34c-6.39,0-12.48-3.69-15.24-9.9-3.74-8.41.05-18.26,8.46-22l150-66.67c8.41-3.74,18.26.05,22,8.46,3.74,8.41-.05,18.26-8.46,22l-150,66.67c-2.2.98-4.5,1.44-6.76,1.44Z"/>
    <path class="cls-1" d="M316.67,566.67c-9.21,0-16.67-7.46-16.67-16.67v-166.67c0-9.21,7.46-16.67,16.67-16.67s16.67,7.46,16.67,16.67v166.67c0,9.21-7.46,16.67-16.67,16.67Z"/>
    <path class="cls-1" d="M83.34,366.68c-6.47,0-12.62-3.79-15.33-10.11-3.63-8.46.29-18.26,8.75-21.88l116.67-50c8.46-3.62,18.26.29,21.88,8.75,3.63,8.46-.29,18.26-8.75,21.88l-116.67,50c-2.14.92-4.37,1.35-6.56,1.35Z"/>
    <path class="cls-1" d="M550,366.68c-2.19,0-4.42-.43-6.56-1.35l-116.67-50c-8.46-3.63-12.38-13.42-8.75-21.88,3.63-8.46,13.42-12.38,21.88-8.75l116.67,50c8.46,3.63,12.38,13.42,8.75,21.88-2.71,6.32-8.86,10.11-15.33,10.11Z"/>
</svg>