<?xml version="1.0" encoding="UTF-8"?>
<svg id="Layer_1" data-name="Layer 1" xmlns="http://www.w3.org/2000/svg" viewBox="0 0 135.1 29.9">
  <defs>
    <style>
      .cls-1 {
        fill: #fff;
      }
    </style>
  </defs>
  <g transform="translate(20, 0)">
    <path class="cls-1" d="M77.18,14.42s.06.88.08.88c.03,0,.66-3.31-1.03-5.27-.41-.48-.84-.73-1.53-1.14-1.08-.65-2.18-1.3-3.62-1.22-1.41.08-2.78.83-3.59,1.95-.54.75-.7,1.49-.84,2.33-.66,3.85-.62,7.03-.53,9.35.1,2.66.22,3.17.46,3.74.81,1.92,2.35,2.97,3.32,3.62,1.87,1.27,3.58,1.6,4.96,1.87,2.01.39,3.32.64,4.16-.15.81-.76.77-2.11.53-2.94-.47-1.61-2.63-.97-4.27-2.94-.31-.38-.64-.87-1.34-1.26-.58-.32-.95-.31-1.64-.65-.69-.33-1.36-.94-1.37-.95,0,0,0,0,0,0-.21-.18-.56-.37-.73-.56-.19-.22-.1-.28.08-.62.05-.1-.11-.25-.15-.46-.03-.17-.08-.39,0-.65.02-.07.1-.35.31-.5.32-.23.79,0,1.26.11.39.1.92.05,1.98-.04,1.73-.15,2.6-.23,3.01-.72.32-.39.37-.98.46-2.17.07-.89.01-1.6.04-1.6Z"/>
    <g id="Layer_1-2" data-name="Layer 1">
      <g>
        <path d="M51.7,8.9c1.7.1,3.2,0,4.5.4,4.3,1,5.7,4.7,6.5,8.2.9,3.7,1,7.5,1.3,11.3.1,2.1-.8,3.8-3.2,4.1-2.1.2-3.5-1.2-3.9-3.8-.4-3.1-.7-6.2-1.2-9.3-.2-1.1-.7-2.1-1.1-3.2h-.9c-.3,1-.9,2-.9,3,0,2.8.2,5.6.4,8.3.1,2.1-.4,3.8-2.7,4.2-2.3.4-3.5-1.2-3.9-3.2-.7-4.1-1.2-8.2-1.6-12.3-.3-3.9-.3-7.8-.4-11.6,0-.9-.1-2,.3-2.7.7-1,1.9-2.3,2.8-2.3,1,0,2.5,1.2,2.8,2.2.6,2,.6,4.3.9,6.6l.3.1ZM49.2,4h-1.1c-.1.6-.4,1.2-.4,1.8.5,7.2,1,14.4,1.6,21.7,0,.6.7,1.1,1.1,1.7.2,0,.5-.2.7-.3,0-1.3.1-2.6.2-3.9.2-2.3.1-4.7.6-7,.2-1.1,1.3-2.4,2.3-2.8,1.6-.6,2.6.7,3.2,2.1.2.5.5,1.1.5,1.7.2,2.8.3,5.5.5,8.3,0,.6.7,1.1,1.1,1.7.5-.5,1.4-1,1.3-1.5-.2-3.4-.3-6.9-1-10.2-.8-4.3-6-6.2-9.6-2-.4-3.8-.8-7.5-1.1-11.1l.1-.2Z"/>
        <path d="M70.79,19.67c-.1.6-.5.8-.6,1.4-2.2-3.4-2.1-7.4,0-9.5.9-.9,2.1-1.8,3.5-.4-.8.6,1.1.4.1,1.2,1.4.3-.2,1.4.7,1.6v.8c-1.8.3-3.6.6-5.5.9,1.4,1.7,7.1,1.7,7.7.1.6-1.5-1.3-6.3-2.8-6.9-2.2-.9-5.3.8-6.4,3.2-1.5,3.7-1.1,7.2.8,10.6,1.9,3.6,4.1,6.9,8.7,7.1.7,0,1.5-.6,2.3-.9-.6-.5-1.1-1.1-1.8-1.5-2.2-1.3-5.5-4.7-7.3-6.3,3,.5,7.1,3,10,3.9,1.2.4,2.4,1.7,2.9,3,.4.9,0,2.7-.8,3.4-2,1.8-4.6,2.4-7.4,1.9-.3,0-.5,0-.7-.1-6.3-1.5-9.5-4.9-10.1-11.4-.3-3.3.2-6.7.8-10,.7-3.3,3.3-5.4,6.3-6.7,3.7-1.5,9.1,3.7,9.6,7.1.7,4.7-1.6,7.4-7,7.6-.9,0-1.9,0-3-.2v.1Z"/>
        <path d="M35.4,23.6c1.6-.6,2.8-1.4,4-1.6,1.5-.1,3.6-.1,4.3.7.8,1.1.8,3.4.2,4.6-2.3,4.1-8.3,5.3-12.3,2.9-2.8-1.6-3.5-4.2-3.6-7.1v-6c-2.5-.9-7,.3-6.6-4.5.3-4.2,4.4-3.7,7.5-4.7.2-1.3.3-2.7.7-4,.4-1.8,1.2-3.5,3.5-3.2s3.1,1.8,3,3.9v.8q-.2,3.5,3.3,3.7c1.8,0,3.2.8,3.4,2.7.3,2-.4,3.5-2.4,4.2-.5.2-1,.3-1.5.3-2.73.53-4.03,2.2-3.9,5,0,.6.2,1.1.4,2.2v.1ZM32.8,4.5c-.2,0-.5,0-.7.1,0,.5-.1,1-.2,1.5-.3,1.6,0,3.8-1,4.7s-3.2.5-4.8.8c-.4,0-.8.6-1.2.9.3.4.6,1,1,1.1,1.6.2,3.2.3,5,.4,0,.8-.3,1.6-.3,2.4,0,2.9-.2,5.9.4,8.8.8,3.9,5.3,5,8.2,2.2.7-.7.7-2.2,1.1-3.3-.9.3-1.7.6-2.6.9-.3.1-.6.3-.9.5-2.2,1-3.5.5-3.7-1.9-.3-3.2,0-6.4,0-9.8,1.8,0,3.1.1,4.4,0,.6,0,1.1-.7,1.7-1.1-.5-.5-1-1.3-1.6-1.4-1.4-.2-2.8,0-4.2,0-.2-2.4,1-4.6-.5-6.5l-.1-.3Z"/>
        <path d="M20.3,16.9c-.4,5.8-.9,10.2-4.8,13.3-5.1,4.1-11.8,2.4-14.2-3.7C-1.5,19.4.3,11.5,6.1,6.3c1.3-1.2,3-2.3,4.6-2.6,3.7-.7,6.6,1.1,7.8,4.8,1,3.1,1.4,6.4,1.8,8.4ZM17.3,15.7c0-1.3.2-2.7-.3-3.7-.7-1.7-1.6-4.2-3-4.7-2.6-1-5.5-.2-7.5,2.2-3.3,4.1-3.9,8.9-2.9,13.8.5,2.5,2,4.8,5.2,5.2,2.7.3,4.9-.7,6-3.2"/>
        <path d="M99.2,8.9c-.6.6-1.5,1.9-2.7,2.4-5.1,2.1-5.2,2-5,7.5,0,1.8.5,3.6.9,5.5.4,2.5-.5,4.5-2.4,4.9-2,.4-3.7-.8-4.1-3.5-.8-5.2-1.7-10.4-2.1-15.7-.3-3.4.4-3.5,3.8-3.1,1,.1,2.1-.8,3.2-1.2,1.5-.5,2.9-1.2,4.5-1.4,2.1-.3,3.9,1.5,3.9,4.5v.1ZM87,9.4c-.3,0-.7.1-1,.2-.5,4.8.8,9.3,1.8,13.9,0,.4.9.6,1.3.9.3-.5.9-1,.9-1.6v-7.3c.1-2.1.8-3.9,3.1-4.6.6-.2,1.1-1,2-1.8-4.2-.7-6.2,1-7.3,4.5-.3-1.8-.6-3-.8-4.3v.1Z"/>
        <path class="cls-1" d="M49.2,4c.4,3.7.8,7.4,1.1,11.1,3.6-4.2,8.7-2.3,9.6,2,.6,3.4.8,6.8,1,10.2,0,.5-.9,1-1.3,1.5-.4-.6-1-1.1-1.1-1.7-.3-2.8-.3-5.5-.5-8.3,0-.6-.3-1.1-.5-1.7-.6-1.5-1.6-2.8-3.2-2.1-1,.4-2.1,1.7-2.3,2.8-.5,2.3-.4,4.7-.6,7,0,1.3-.1,2.6-.2,3.9-.2,0-.5.2-.7.3-.4-.6-1.1-1.1-1.1-1.7-.6-7.2-1.1-14.4-1.6-21.7,0-.6.2-1.2.4-1.8h1.1l-.1.2Z"/>
        <path class="cls-1" d="M32.8,4.5c1.4,1.9.3,4.1.5,6.5,1.3,0,2.8-.1,4.2,0,.6,0,1.1.9,1.6,1.4-.5.4-1.1,1-1.7,1.1-1.3.2-2.7,0-4.4,0,0,3.3-.2,6.6,0,9.8.2,2.4,1.5,2.9,3.7,1.9.3-.1.6-.4.9-.5.9-.3,1.7-.6,2.6-.9-.3,1.1-.4,2.6-1.1,3.3-2.9,2.8-7.4,1.7-8.2-2.2-.6-2.8-.3-5.8-.4-8.8,0-.8.2-1.6.3-2.4-1.9-.1-3.4-.2-5-.4-.4,0-.7-.7-1-1.1.4-.3.7-.9,1.2-.9,1.6-.3,3.8.1,4.8-.8,1-.9.8-3.1,1-4.7,0-.5.1-1,.2-1.5.2,0,.5,0,.7-.1l.1.3Z"/>
        <path class="cls-1" d="M17.2,16.1c-1.1,3.1-1.2,6.1-2.5,9.1-1.1,2.5-3.2,3.5-6,3.2-3.1-.3-4.7-2.7-5.2-5.2-1-4.9-.3-9.7,2.9-13.8,2-2.5,4.9-3.2,7.5-2.2,1.4.5,2.3,3,3,4.7.5,1.1.2,2.5.3,3.7-.4.4-.3.3,0,.4v.1ZM10.8,24.9c1.1-1.3,2.7-2.5,3.1-3.9.6-2.7.8-5.6.6-8.4,0-1.3-1.4-3.7-2-3.7-1.6.1-3.5,1-4.4,2.2-2.3,3-3.1,6.7-2.6,10.5.4,3,3,4.5,5.4,3.2h0l-.1.1Z"/>
        <path class="cls-1" d="M87,9.4c.2,1.2.5,2.5.8,4.3,1.1-3.5,3.1-5.3,7.3-4.5-.9.9-1.3,1.6-2,1.8-2.3.8-3,2.6-3.1,4.6-.1,2.4,0,4.9,0,7.3,0,.5-.6,1-.9,1.6-.5-.3-1.2-.5-1.3-.9-1-4.6-2.3-9.2-1.8-13.9.3,0,.7-.1,1-.2v-.1Z"/>
        <path d="M12.74,26.13c-5.9-.34-6.94-1.53-7.24-4.53-.5-3.8.3-7.5,2.6-10.5.9-1.2,2.9-2.1,4.4-2.2.6,0,1.9,2.4,2,3.7.2,2.8.16,7.76-.44,10.46-1.53,6.14-2.16.54-3.26,1.84,3.1-4.3,2.6-9,1.4-13.9-.7.3-1.2.4-1.5.7-2.7,3.3-3.1,7.2-2.5,11.2.2,1.4,1.67,1.86,3.27,1.66l1.27,1.57Z"/>
      </g>
    </g>
  </g>
</svg>