<?xml version="1.0" encoding="UTF-8"?>
<svg id="Layer_1" xmlns="http://www.w3.org/2000/svg" viewBox="0 0 113.27 19.99">
  <path d="M74.54,12.99c-.6,1.18-.99,2.48-1.8,3.41-2.04,2.34-3.4,2.21-5.27-.27-.15.11-.31.21-.44.34-4.03,4.18-10.35,1.36-11.84-2.78-.35-.99-.82-1.31-1.81-1.14-.82.14-1.65.19-2.57.29.12,1.08.3,2.12.35,3.17.13,2.65-1.74,4.22-4.04,3.43-1.09-.38-1.68-1.18-1.8-2.28-.13-1.14-.22-2.29-.23-3.43,0-.71-.28-.85-.96-1-1.26-.26-2.5-.68-3.68-1.2-.75-.33-.94-1.07-.7-1.93.47-1.65,1.67-2.65,3.45-2.76.51-.03,1.02,0,1.5,0,.21-1.53.36-2.93.63-4.32.13-.67.34-1.38,1.31-1.44,1-.05,1.62.39,1.89,1.28.33,1.09.6,2.2.85,3.32.19.86.54,1.35,1.55,1.47,1.36.17,2.7.58,4.24.93.2-.28.54-.75.88-1.22,1.68-2.29,4.88-3.14,7.48-1.96.42.19.83.48,1.16.81.9.91,1.05,2.03.45,2.91-.57.83-1.89,1.1-3.01.61-.18-.08-.36-.14-.7-.28-.07.54-.18,1.02-.18,1.5.02,1.13.46,1.45,1.6,1.32,1.21-.14,2.43-.22,3.54-.31,0-2.59-.04-5.1.02-7.62.02-.85.21-1.74.53-2.53.19-.46.79-1.08,1.18-1.06.5.03,1.19.52,1.4.99.39.84.48,1.81.71,2.73.14.56.31,1.12.5,1.78.67-.3,1.2-.55,1.75-.77,2.69-1.08,5.2-.26,6.67,2.24,1.33,2.26,1.98,4.72,1.88,7.36-.06,1.64-1.23,3.05-2.64,3.21-1.4.16-2.91-.94-3.34-2.5-.22-.79-.35-1.61-.5-2.29ZM70.24,9.25c-.24-1.62-.47-3.15-.7-4.68-.11-.02-.22-.04-.33-.06-.15.31-.45.63-.42.93.23,2.79.49,5.58.81,8.36.04.31.51.58.78.87.28-.33.72-.62.79-.99.18-.85.02-1.78.28-2.58.33-1.01.83-2.02,1.48-2.85.58-.73,1.27-.51,1.56.43.36,1.13.65,2.29,1.08,3.39.19.48.66.85,1.01,1.27.19-.1.38-.2.56-.3-.41-1.66-.67-3.38-1.25-4.98-.68-1.89-2.39-2.25-3.9-.92-.64.56-1.1,1.32-1.75,2.12ZM63.45,8.46c-.2-.48-.28-1.18-.64-1.39-.58-.35-1.44-.65-2.04-.48-1.63.46-2.63,1.72-3.22,3.26-.69,1.79-.39,3.24.77,4.24,1.21,1.04,3.85,1.41,5.18.72.04-.02.03-.14.06-.34-1.14-.4-2.3-.77-3.44-1.21-1.4-.54-1.84-1.42-1.37-2.8.18-.55.46-1.1.81-1.57,1.25-1.67,2.21-1.74,3.9-.42ZM44.45,9.43c.07.15.14.31.21.46.77.09,1.54.19,2.51.31,0,1.2-.04,2.34.02,3.47.02.33.33.64.5.96.23-.31.63-.61.66-.94.09-.94.05-1.89,0-2.84-.04-.68.15-1.01.89-1.07.63-.05,1.25-.27,1.87-.41,0-.17,0-.35.01-.52-.94-.18-1.89-.36-2.83-.53-.12-.97-.25-1.92-.37-2.87-.2,0-.4,0-.6,0-.09.66-.25,1.32-.25,1.97,0,.93-.37,1.31-1.3,1.39-.46.04-.89.41-1.34.63Z"/>
  <path d="M33.35,12.69c.21.06.61.19,1.02.31.84.24,1.75.34,2.5.73.79.42,1.44,1.11,2.14,1.68-.65.69-1.17,1.66-1.97,2.03-2.33,1.08-4.71.95-6.95-.4-.59-.35-1.06-.48-1.75-.16-1.34.62-2.64.36-3.79-.57-1.29-1.04-2.57-2.09-4.12-3.36,0,.85.05,1.38-.01,1.9-.09.73-.13,1.51-.42,2.17-.35.79-1.05,1.32-2.02,1.14-.96-.18-1.87-1.25-1.89-2.14-.12-3.95-.29-7.9-.32-11.85,0-.97.4-1.98.78-2.91.37-.91,1.07-1.03,1.72-.22.56.7,1.04,1.47,1.6,2.28,1-.76,2.05-1.64,3.19-2.38,1.32-.86,2.99-.09,3.12,1.44.04.52-.21,1.18-.56,1.58-1.05,1.22-2.22,2.36-3.43,3.62,1.74,1.19,3.39,2.32,5.17,3.53.63-2.35,1.91-4.24,3.84-5.6.82-.58,1.82-.94,2.79-1.24,1.4-.42,3.62,1.14,2.66,3.02-.94,1.84-2.15,3.54-3.31,5.4ZM19.59,9.65c1.56,1.11,2.95,2.15,4.41,3.1.26.17.76-.02,1.15-.05-.14-.33-.22-.73-.44-.99-.28-.32-.69-.53-1.03-.8-1.33-1.06-2.65-2.13-4.02-3.22,1.19-1.38,2.31-2.68,3.51-4.07-1.1-.31-1.48.46-2.01.92-.57.51-1.11,1.07-1.8,1.73-.29-1.4-.54-2.56-.78-3.72-.14.01-.28.03-.42.04-.07.36-.21.73-.2,1.09.07,2.87.14,5.75.27,8.62.02.38.29.75.45,1.12.29-.32.69-.59.84-.97.15-.38.07-.85.08-1.28,0-.5,0-1,0-1.52ZM31.71,10.26c.13.09.25.18.38.27.33-.21.64-.45.99-.63.72-.36,1.24-.92.98-1.69-.19-.57-.7-1.31-1.19-1.42-.56-.13-1.56.18-1.84.62-.64,1-1.23,2.18-1.34,3.34-.22,2.46.67,4.87,4.58,4.09-.45-.26-.71-.45-1-.57-2.61-1.13-3.34-3.72-1.65-5.98.2-.27.62-.43.97-.53.12-.03.51.31.48.41-.08.34-.26.68-.47.97-.27.39-.59.74-.9,1.11Z"/>
  <path d="M91.89,12.82c.74.46,1.2.84,1.73,1.07.54.23,1.15.27,1.72.45,1.46.45,1.76.97,1.47,2.45-.28,1.43-2.31,2.91-3.77,3.12-2.73.39-4.83-.88-6.88-2.31-2.12-1.48-3.74-3.41-4.08-6.03-.66-5.13,2.33-9.26,7.63-9.27,1.61,0,3.28.05,4.8.49,1.73.5,3.06,1.72,3.25,3.7.2,2.13-.91,3.64-2.59,4.74-.88.58-1.91.93-3.29,1.58ZM93.88,16.81l.19-.46c-.84-.57-1.64-1.24-2.54-1.69-1.47-.74-2.97-1.44-3.62-3.06-.5-1.25.05-1.95,1.35-1.89.52.02,1.03.06,1.55.07,2.05.06,3.62-.94,3.96-2.53.26-1.19-.5-2.27-1.62-2.01-1.72.4-3.5.82-5.03,1.65-2.35,1.28-2.85,4.46-1.24,6.6,1.37,1.82,3.22,2.91,5.47,3.29.5.08,1.02.01,1.53.01Z"/>
  <path d="M3.04,10.64c-.4-.43-.71-.77-1.03-1.11C-.21,7.1.02,3.91,2.55,1.81,4.98-.21,8.06-.61,10.37.95c.71.48,1.34,1.26,1.67,2.04.59,1.38-.18,2.4-1.69,2.53-.57.05-1.14,0-1.68,0,.96.85,2.01,1.63,2.87,2.57,1.66,1.81,2.03,5.23.91,7.2-1.3,2.29-4.17,3.69-6.83,3.08-1.39-.32-2.82-.9-3.98-1.72-2.36-1.65-2.28-5.12.9-5.74.11-.02.21-.11.5-.27ZM8.23,11.03c0,.19.01.38.02.57-1.14.49-2.3.95-3.41,1.49-.44.22-.79.63-1.17.95.47.22.94.62,1.41.62,1.85-.02,3.32-.93,4.28-2.42.29-.46.14-1.57-.25-1.99-.66-.73-1.67-1.16-2.53-1.73-.92-.61-1.89-1.17-2.72-1.89-.26-.23-.37-1.04-.17-1.33.94-1.36,2.3-2.18,3.96-2.41.51-.07,1.05.05,1.81.09-.57-.94-1.23-1.1-1.96-1.01-1.82.22-3.33,1.05-4.53,2.42-.94,1.08-.98,2.2.09,3.16,1.02.91,2.26,1.59,3.4,2.37.58.39,1.18.75,1.76,1.12Z"/>
  <path d="M102.94,12.76c-.57-.47-1.21-.93-1.76-1.47-2.42-2.39-2.06-5.64.87-7.4,1.99-1.2,4.2-1.56,6.41-.8.82.28,1.65,1.02,2.09,1.77.77,1.31.26,2.12-1.3,2.43-.8.16-1.62.23-2.7.38.57.33.99.52,1.35.78,1.38.99,2.9,1.85,4.07,3.05,2.06,2.1,1.6,5.14-.9,6.68-2.25,1.39-4.77,2.12-7.4,1.65-1.95-.35-3.78-1.19-4.88-3.05-.78-1.31-.61-2.23.8-2.88,1.03-.47,2.16-.73,3.36-1.13ZM99.25,14.86c-.03.23-.06.45-.09.68.89.23,1.77.52,2.68.69,2.18.41,4.37.48,6.47-.37,1.69-.69,2.28-2.19,1.41-3.78-.52-.94-1.32-1.76-2.1-2.52-.65-.63-1.54-1.03-2.15-1.68-.47-.5-.67-1.24-1-1.87.66-.18,1.31-.43,1.98-.53.5-.07,1.03.05,1.55.09.03-.17.05-.34.08-.51-.92-.21-1.83-.56-2.75-.61-2.05-.11-3.02,1.44-1.98,3.21.47.79,1.23,1.43,1.93,2.05.79.71,1.76,1.25,2.49,2.02,1.36,1.44.98,2.52-.96,2.85-.98.17-1.98.24-2.97.27-1.52.04-3.05.01-4.57.01Z"/>
  <path d="M70.24,9.25c.65-.8,1.11-1.56,1.75-2.12,1.52-1.33,3.22-.97,3.9.92.58,1.6.85,3.32,1.25,4.98-.19.1-.38.2-.56.3-.34-.42-.82-.79-1.01-1.27-.43-1.1-.72-2.26-1.08-3.39-.3-.94-.99-1.16-1.56-.43-.65.83-1.15,1.84-1.48,2.85-.26.8-.11,1.74-.28,2.58-.08.37-.52.67-.79.99-.27-.29-.75-.55-.78-.87-.32-2.78-.58-5.57-.81-8.36-.02-.3.27-.62.42-.93.11.02.22.04.33.06.23,1.53.46,3.06.7,4.68Z" style="fill: #fff;"/>
  <path d="M63.45,8.46c-1.69-1.32-2.65-1.25-3.9.42-.35.47-.62,1.02-.81,1.57-.46,1.39-.03,2.27,1.37,2.8,1.14.44,2.31.81,3.44,1.21-.03.2-.02.32-.06.34-1.33.69-3.97.32-5.18-.72-1.16-1-1.45-2.45-.77-4.24.59-1.54,1.59-2.8,3.22-3.26.6-.17,1.46.14,2.04.48.36.22.44.91.64,1.39Z" style="fill: #fff;"/>
  <path d="M44.45,9.43c.45-.22.88-.59,1.34-.63.94-.08,1.31-.46,1.3-1.39,0-.66.16-1.31.25-1.97.2,0,.4,0,.6,0,.12.95.24,1.9.37,2.87.94.18,1.89.36,2.83.53,0,.17,0,.35-.01.52-.62.14-1.24.36-1.87.41-.74.06-.93.39-.89,1.07.05.94.08,1.9,0,2.84-.03.33-.43.63-.66.94-.18-.32-.49-.63-.5-.96-.06-1.13-.02-2.27-.02-3.47-.97-.12-1.74-.21-2.51-.31-.07-.15-.14-.31-.21-.46Z" style="fill: #fff;"/>
  <path d="M19.59,9.65c0,.52,0,1.02,0,1.52,0,.43.08.91-.08,1.28-.15.37-.55.65-.84.97-.16-.37-.43-.74-.45-1.12-.12-2.87-.2-5.75-.27-8.62,0-.36.13-.72.2-1.09.14-.01.28-.03.42-.04.24,1.16.49,2.32.78,3.72.68-.66,1.23-1.21,1.8-1.73.52-.47.91-1.24,2.01-.92-1.2,1.39-2.32,2.69-3.51,4.07,1.36,1.09,2.69,2.16,4.02,3.22.34.27.75.48,1.03.8.23.26.3.65.44.99-.39.02-.89.22-1.15.05-1.45-.95-2.85-1.99-4.41-3.1Z" style="fill: #fff;"/>
  <path d="M31.71,10.26c.3-.37.63-.72.9-1.11.2-.3.39-.63.47-.97.02-.1-.36-.45-.48-.41-.35.1-.77.26-.97.53-1.69,2.26-.96,4.85,1.65,5.98.29.13.55.31,1,.57-3.91.78-4.81-1.63-4.58-4.09.1-1.15.7-2.33,1.34-3.34.28-.45,1.28-.75,1.84-.62.49.11,1,.86,1.19,1.42.26.77-.26,1.33-.98,1.69-.35.17-.66.41-.99.63-.13-.09-.25-.18-.38-.27Z" style="fill: #fff;"/>
  <path d="M93.88,16.81c-.51,0-1.03.07-1.53-.01-2.25-.38-4.11-1.46-5.47-3.29-1.6-2.14-1.11-5.32,1.24-6.6,1.53-.83,3.31-1.26,5.03-1.65,1.12-.26,1.89.82,1.62,2.01-.35,1.58-1.91,2.58-3.96,2.53-.52-.01-1.03-.05-1.55-.07-1.3-.05-1.85.64-1.35,1.89.65,1.62,2.15,2.32,3.62,3.06.9.45,1.7,1.12,2.54,1.69l-.19.46ZM88.79,8.54c1.35-.22,2.45-.34,3.52-.61.35-.09.61-.53.91-.81-.4-.19-.8-.53-1.2-.53-1.3,0-2.38.5-3.23,1.94Z" style="fill: #fff;"/>
  <path d="M8.23,11.03c-.59-.37-1.19-.73-1.76-1.12-1.15-.77-2.38-1.45-3.4-2.37-1.07-.96-1.03-2.08-.09-3.16,1.19-1.37,2.71-2.2,4.53-2.42.72-.09,1.38.07,1.96,1.01-.75-.04-1.29-.16-1.81-.09-1.66.24-3.02,1.05-3.96,2.41-.2.29-.09,1.1.17,1.33.83.72,1.8,1.28,2.72,1.89.86.57,1.86.99,2.53,1.73.38.42.54,1.54.25,1.99-.96,1.5-2.43,2.4-4.28,2.42-.47,0-.94-.4-1.41-.62.39-.32.73-.74,1.17-.95,1.11-.54,2.27-1,3.41-1.49,0-.19-.01-.38-.02-.57Z" style="fill: #fff;"/>
  <path d="M99.25,14.86c1.52,0,3.05.03,4.57-.01.99-.03,1.99-.1,2.97-.27,1.94-.33,2.33-1.41.96-2.85-.73-.77-1.69-1.31-2.49-2.02-.7-.63-1.47-1.26-1.93-2.05-1.04-1.77-.07-3.32,1.98-3.21.93.05,1.84.4,2.75.61-.03.17-.05.34-.08.51-.52-.04-1.05-.16-1.55-.09-.67.1-1.32.34-1.98.53.32.63.53,1.37,1,1.87.61.65,1.51,1.05,2.15,1.68.78.77,1.58,1.58,2.1,2.52.87,1.59.28,3.09-1.41,3.78-2.09.85-4.29.78-6.47.37-.9-.17-1.79-.46-2.68-.69.03-.23.06-.45.09-.68Z" style="fill: #fff;"/>
  <path d="M88.79,8.54c.86-1.44,1.93-1.95,3.23-1.94.4,0,.8.34,1.2.53-.3.28-.56.72-.91.81-1.07.26-2.17.39-3.52.61Z"/>
</svg>