<?xml version="1.0" encoding="UTF-8"?>
<svg id="Layer_1" xmlns="http://www.w3.org/2000/svg" version="1.1" viewBox="0 0 126.1 26.9">
  <!-- Generator: Adobe Illustrator 29.1.0, SVG Export Plug-In . SVG Version: 2.1.0 Build 142)  -->
  <defs>
    <style>
      .st0 {
        fill: #fff;
      }
    </style>
  </defs>
  <path d="M77,13.9c.2,1.3.5,2.6.7,3.8.3,1.6.2,3.1-1,4.5-1,1.1-1.8,1-2.8.1-1.9-1.5-2.1-3.9-2.3-6-.2-2.1-1.3-2.6-3.6-2.7,1,2,1.7,3.9,2.8,5.6.8,1.4,1.2,2.7-.1,3.7-1.4,1.1-2.9.6-4-.7-.1-.1-.3-.2-.4-.4-2.8,2.5-4.6,2.7-8.2.9-.1.2-.2.4-.4.6-.9.6-2,1.8-2.8,1.6-1-.2-2.1-1.4-2.5-2.4-.9-2.3-1.3-4.7-1.9-7.1,0-.2-.2-.4-.8-.5v4.6c0,.8.2,1.7-.1,2.3-.4.8-1.3,1.8-1.9,1.8-.8,0-2-.7-2.4-1.5-.7-1.1-.9-2.5-1.6-3.7.1.8.3,1.6.3,2.5,0,1.5-.1,2.9-2,3.2-1.6.2-2.4-.8-2.7-2.3-.6-2.8-1.3-5.6-1.8-8.4-.5-2.5,0-2.9,2.5-2.6.3,0,.7-.2,1.1-.3.8-.2,1.7-.7,2.3-.4,1.7.8,3,.3,4.2-.8,1.5-1.4,3.1-1.3,4.6,0,1.2,1,2.3,2.1,3.5,3.1,1-1.9,1.8-4.3,4.6-4.8,2.5-.4,4.9,0,6.6,1.7,1.1-.6,2-1.1,3.3-1.8-.2-1.3-.4-2.9-.7-4.5-.2-1.2-.4-2.5,1.1-3,1.5-.4,2.5.5,3,1.7.8,1.8,1.3,3.8,2,5.8,2,0,4.7-1,5.2,2.5.2,1.7-1.1,3-3.9,3.8h0ZM43,16.1c.3,0,.5,0,.8-.1.5,1.1.9,2.3,1.5,3.3.3.5.8.9,1.3,1.3.2-.5.5-1,.6-1.5,0-1,0-2,0-3,0-1.3.7-2.4,2.1-2.5,1.5,0,2.6.6,2.7,2.2.1,1.3.2,2.6.4,3.9,0,.5.7.8,1.1,1.2.3-.4.9-.9.9-1.3,0-1.6,0-3.3-.5-4.9-.6-2.4-3-4-5.3-3.2-1.2.4-2.2,1.8-3.3,2.9-1.4-2.5-3.2.7-5,0-.6,2.2.7,7.5,2.4,8.4,0-1.3-.2-2.4-.2-3.4,0-1.1.3-2.3.5-3.4h0ZM69.4,20.7c-1-2.9-2-5.6-3-8.3-.2-.7-.7-1.5-1.3-1.7-1.3-.4-2.8-.8-4-.6-1,.2-2.2,1.1-2.7,2-1,2.2-1.2,4.5-.5,6.9.5,1.6,1.5,2.4,3.2,2.5,2.6.1,4.5-.8,5.4-3.5,1.4,2.9,1.9,3.3,2.9,2.7h0ZM72.7,3.6c-.3,0-.5,0-.8,0v6c-1.4.4-2.7.7-4,1.1,0,.2,0,.5,0,.7.8,0,1.6.3,2.4.2,1.6-.1,2.2.3,2.3,2,0,1.8.4,3.5.8,5.3,0,.4.6.7,1,1,.3-.4.8-.8.9-1.3.1-.5,0-1.2-.2-1.8-.2-1.7-.5-3.5-.7-5.2.8-.2,1.4-.2,2-.5.5-.3.9-.8,1.3-1.1-.6-.3-1.1-.7-1.7-.8-.7,0-1.4.1-2.1.2-.5-2.1-.9-4-1.4-6h0Z"/>
  <path d="M105.4,10.1c-.1,1.4-.3,2.8-.4,4.1,0,1.3.2,2.7,0,4-.2.8-1.2,1.9-2,2-.7,0-1.6-1-2.3-1.6-.3-.3-.4-.8-.8-1.5-1.3,2.8-3,5-6.3,4.9-3.2-.1-4.5-2.6-5.9-5.1-.2.2-.2.3-.2.4-.3,1.5-.4,3.4-2.6,3.4s-2.6-1.9-2.8-3.5c-.3-2.7-.5-5.4-.4-8.1,0-.8,1.1-1.5,1.7-2.2.7.6,1.7,1.1,2.2,1.9.5.8.5,1.9.9,3.3.7-3.2,1.4-6,4.2-7.5,1.8-1,6.2.1,7.6,1.7.5-.6.9-1.5,1.6-1.7.6-.2,1.4.3,2.2.6,4-3,6.5-2.5,9.2,2.1.6,1,1,2.1,1.2,3.1.5,2.9.9,5.7,1.1,8.6.1,1.7-1,2.8-2.7,2.9-1.8,0-2.8-1-3.1-2.8-.3-2.1-.5-4.2-.8-6.3-.2-.9-.5-1.8-.8-2.7-.2,0-.5,0-.7,0h0ZM103.1,8c-.4-.3-.7-.5-1.1-.8-.2.4-.6.7-.5,1.1.1,2.5.2,5,.5,7.5,0,.5.6.9.9,1.3.2-.5.6-1,.7-1.6.4-2.2.6-4.6,1.2-6.8.4-1.6,2.1-1.8,2.8-.5.8,1.5,1.3,3.2,1.8,4.9.3,1,0,2.1.1,3.2,0,.5.6,1,1,1.5.3-.5,1-1,.9-1.5-.3-2.5-.4-5-1.2-7.4-1.3-3.9-4.6-4.3-7.1-1.1h0ZM98.4,12.8c0-.8,0-1.5-.1-2.1-.3-1.9-1.3-3.5-3.3-4.1-1.7-.5-3,.1-4.1,1.3-1.8,2-2.3,6-1.1,8.4.9,1.8,2.9,2.8,5,2.5,2.2-.3,3-1.8,3.3-3.6.2-.8.2-1.7.2-2.4h0ZM84.1,9.2c-.2,0-.4.1-.6.2,0,2.3,0,4.7,0,7.1,0,.4.8.9,1.2,1.3.3-.5.8-.9.7-1.3,0-1.8-.3-3.7-.6-5.5,0-.6-.5-1.1-.8-1.7h0Z"/>
  <path d="M5.8,19.7c-.3,2-.4,3.9-.9,5.7-.2.6-1.1,1.3-1.8,1.4-.5,0-1.5-.8-1.6-1.3C0,19.8-1,14.1,1.4,8.5c.9-2.2,2.6-4.1,5.3-4.7,4.5-.9,6.6.7,7.9,4.7,1.5,4.4,1.9,9.1,2.8,13.8,0,.3,0,.7,0,1-.2,2-1.4,3.5-2.8,3.6-1.6.1-2.8-1.1-3.2-3.4-.4-2.4-1.9-3.6-4.3-3.8-.5,0-.9,0-1.4,0h0ZM12.6,17.4c.2,1.2.3,2.3.5,3.3.1.5.6.8.9,1.2.2-.5.7-1,.6-1.5-.6-4.2-1-8.5-3.5-12-.8-1.1-2.5-2.1-3.9-2.2-1.7-.2-2.5,1.4-3.3,3-1.8,3.8-1.7,7.7-1.5,11.7,0,.9.4,1.8.6,2.7.2,0,.5,0,.7,0,.1-2,.2-4.1.3-6.1h8.5Z"/>
  <path d="M33.7,24.5c-1.4.4-2.6,1.1-3.8,1-1.6-.1-2-1.7-2.3-3.1-.4-2.2-.2-4.5-2.1-6.4-1.1,1.9-.9,3.8-.5,5.6.3,1.6.4,3.2-1.2,4.2-.5.3-1.6.3-1.9,0-.8-.9-1.6-2-1.8-3.2-.6-2.6-.9-5.4-1.3-8.1-.3-2.4,0-2.8,2.5-3.3.3,0,.6-.3.9-.4,3.4-2.1,6.4-1.4,8.6,2.1.6.9,1.1,1.8,1.8,2.9,0-1.1,0-2.2.3-3.1.2-.6.9-1.5,1.5-1.5.5,0,1.5.7,1.7,1.2.9,3,1.7,6,2.4,9,.3,1.4.4,3.1-1.2,3.6-1,.3-2.4-.3-3.4-.5h0ZM21.6,12.7c-.2,1-.5,1.6-.4,2.2.2,2.2.4,4.3.7,6.5.1.6.6,1.2.9,1.8.3-.6.7-1.3.8-2,.4-1.8.4-3.6.9-5.4.2-.6,1.2-1.3,1.9-1.3s1.7.7,1.9,1.3c.6,1.4.7,2.9,1.2,4.4.2.6.8,1,1.2,1.6.3-.6,1-1.2.9-1.7-.2-1.7-.5-3.4-1.1-5-.9-2.2-3.8-3.1-5.9-2-.7.4-1.2.9-1.8,1.4-.3-.4-.6-.8-1.2-1.6ZM35,13.9c-.3,0-.6.2-.9.2.3,2.8.5,5.6.8,8.3,0,.3.7.6,1.1.9.2-.4.7-.9.7-1.2-.2-1.8-.5-3.7-.8-5.5-.2-.9-.6-1.9-.9-2.8h0Z"/>
  <path d="M121.5,13.3c-1.7-.9-3.4-1.8-5.2-2.5-3.2-1.3-4.7-3.8-3.7-6.4,1.2-3.1,4.6-4.8,7.6-3.5.8.3,1.6,1.1,2.1,1.9.9,1.5.2,2.4-1.7,2.5-.6,0-1.2,0-1.9.6,1.1.6,2.4,1.1,3.4,1.9,3.2,2.4,4.3,4.6,3.8,8.1-.3,1.9-2.4,4-4.4,4.4-2,.4-4.1.6-5.6-1.4-1.1-1.7-.4-3.5,1.7-3.9,1.2-.2,2.4-.4,3.7-.6,0-.3.1-.6.2-.9h0ZM121.2,2.9c-.9-.6-1.4-1.2-1.9-1.3-1.6-.3-4.4,1.2-4.8,2.7-.3.9-.2,2.4.3,3.1.9,1.1,2.3,1.7,3.5,2.5,1.1.7,2.4,1.2,3.4,2,1.4,1.1,1.3,2.2-.1,3.2-.8.6-1.8.9-2.7,1.5-.3.2-.6.6-.8,1,.3.2.7.6,1.1.6,1.6.2,4.4-1.8,4.9-3.4.6-1.9,0-3.4-1.6-4.5-1.7-1.2-3.5-2.2-5.2-3.3-.5-.3-1.1-.9-1.1-1.4,0-.5.7-1.2,1.2-1.4,1.1-.5,2.3-.6,4-1.1h0Z"/>
  <path d="M79.7,3.3c.4-1.8.9-2.8,2.5-2.8,1.4,0,1.9,1,2,2.3,0,1.3-.7,2.3-2,2.1-.9-.1-1.6-1-2.4-1.6h0Z"/>
  <path d="M34,8.9c-1.4-.8-2.7-1.7-2.2-3.5.2-.6,1-1.3,1.6-1.3.7,0,1.7.6,1.9,1.2.5,1.5,0,2.8-1.4,3.7h0Z"/>
  <path class="st0" d="M43,16.1c-.2,1.1-.4,2.3-.5,3.4,0,1,.1,2.1.2,3.4-1.7-1-3-6.2-2.4-8.4,1.7.8,3.6-2.5,5,0,1.2-1.1,2.1-2.4,3.3-2.9,2.3-.8,4.7.8,5.3,3.2.4,1.6.4,3.3.5,4.9,0,.4-.6.9-.9,1.3-.4-.4-1-.8-1.1-1.2-.3-1.3-.3-2.6-.4-3.9-.2-1.6-1.3-2.3-2.7-2.2-1.4,0-2,1.1-2.1,2.5,0,1,0,2,0,3,0,.5-.4,1-.6,1.5-.4-.4-1-.8-1.3-1.3-.6-1.1-1-2.2-1.5-3.3-.3,0-.5,0-.8.1h0Z"/>
  <path class="st0" d="M69.4,20.7c-.9.6-1.4.2-2.9-2.7-.9,2.7-2.8,3.7-5.4,3.5-1.7-.1-2.6-1-3.2-2.5-.8-2.4-.6-4.8.5-6.9.4-.9,1.7-1.8,2.7-2,1.3-.2,2.8.1,4,.6.6.2,1,1.1,1.3,1.7,1,2.7,2,5.5,3,8.3h0ZM58.4,16.2c.6,1.2,1,2.9,2,3.6,1.6,1.1,4.3-.4,4.7-2.5.2-1.3,0-2.6,0-3.9,0-2.2-1.8-1.8-3-2.1-1.1-.3-2.3,0-2.7,1.4-.3,1.1-.7,2.1-1.1,3.6h0Z"/>
  <path class="st0" d="M72.7,3.6c.4,1.9.9,3.9,1.4,6,.7-.1,1.4-.3,2.1-.2.6,0,1.2.5,1.7.8-.4.4-.8.9-1.3,1.1-.5.3-1.2.3-2,.5.2,1.8.5,3.5.7,5.2,0,.6.3,1.2.2,1.8,0,.5-.6.9-.9,1.3-.3-.3-.9-.6-1-1-.4-1.7-.8-3.5-.8-5.3,0-1.7-.7-2.2-2.3-2-.8,0-1.6-.1-2.4-.2,0-.2,0-.5,0-.7,1.3-.3,2.6-.7,4-1.1V3.7c.3,0,.5,0,.8,0Z"/>
  <path class="st0" d="M103.1,8c2.5-3.2,5.8-2.8,7.1,1.1.8,2.3.9,4.9,1.2,7.4,0,.4-.6,1-.9,1.5-.3-.5-.9-.9-1-1.5-.2-1,.1-2.2-.1-3.2-.4-1.7-.9-3.4-1.8-4.9-.8-1.4-2.4-1.1-2.8.5-.6,2.2-.8,4.5-1.2,6.8,0,.6-.5,1.1-.7,1.6-.3-.4-.9-.9-.9-1.3-.2-2.5-.4-5-.5-7.5,0-.4.3-.7.5-1.1.3.2.6.5,1.1.8h0Z"/>
  <path class="st0" d="M98.4,12.8c0,.7,0,1.6-.2,2.4-.3,1.9-1.1,3.4-3.3,3.6-2.1.2-4-.7-5-2.5-1.3-2.4-.8-6.4,1.1-8.4,1.1-1.2,2.4-1.9,4.1-1.3,2,.7,2.9,2.2,3.3,4.1.1.6,0,1.3.1,2.1h0ZM97.1,12.5c.1-.1.2-.2.4-.4-1.1-1.4-2.1-2.9-3.2-4.2-.2-.2-1.2,0-1.5.2-2,1.7-2.5,5.4-1.2,7.6,1.1,1.7,3.8,1.9,4.5.3.5-1.1.7-2.4,1-3.6h0Z"/>
  <path class="st0" d="M84.1,9.2c.3.6.7,1.1.8,1.7.3,1.8.5,3.7.6,5.5,0,.4-.5.9-.7,1.3-.4-.4-1.2-.8-1.2-1.3-.1-2.4,0-4.7,0-7.1.2,0,.4-.1.6-.2h0Z"/>
  <path class="st0" d="M12.6,17.4H4c-.1,2-.2,4.1-.3,6.1-.2,0-.5,0-.7,0-.2-.9-.6-1.8-.6-2.7-.2-4-.2-7.9,1.5-11.7.7-1.5,1.6-3.2,3.3-3,1.4.2,3.1,1.1,3.9,2.2,2.5,3.5,2.9,7.8,3.5,12,0,.5-.4,1-.6,1.5-.3-.4-.8-.8-.9-1.2-.3-1-.4-2.1-.5-3.3h0ZM4,15.7c2.8-.3,5.3-.7,8.4-1-1.1-2.2-2.1-4.3-3.3-6.2-.5-.8-1.9-1.5-2.7-.3-1.5,2.3-2.5,4.8-2.4,7.5h0Z"/>
  <path class="st0" d="M21.6,12.7c.6.9.9,1.2,1.2,1.6.6-.4,1.1-1,1.8-1.4,2.1-1.1,5-.3,5.9,2,.6,1.6.9,3.3,1.1,5,0,.5-.6,1.1-.9,1.7-.4-.5-1-1-1.2-1.6-.5-1.4-.6-3-1.2-4.4-.3-.6-1.3-1.3-1.9-1.3s-1.7.7-1.9,1.3c-.5,1.7-.6,3.6-.9,5.4-.1.7-.5,1.3-.8,2-.3-.6-.8-1.1-.9-1.8-.3-2.1-.6-4.3-.7-6.5,0-.6.2-1.1.4-2.2Z"/>
  <path class="st0" d="M35,13.9c.3.9.7,1.8.9,2.8.3,1.8.6,3.6.8,5.5,0,.4-.4.8-.7,1.2-.4-.3-1-.6-1.1-.9-.3-2.8-.6-5.6-.8-8.3.3,0,.6-.2.9-.2h0Z"/>
  <path class="st0" d="M121.2,2.9c-1.7.5-2.9.6-4,1.1-.5.2-1.2.9-1.2,1.4,0,.4.6,1.1,1.1,1.4,1.7,1.2,3.6,2.1,5.2,3.3,1.5,1.1,2.2,2.7,1.6,4.5-.6,1.7-3.3,3.6-4.9,3.4-.4,0-.7-.4-1.1-.6.3-.3.5-.8.8-1,.9-.5,1.8-.9,2.7-1.5,1.4-1,1.5-2.1.1-3.2-1-.8-2.3-1.3-3.4-2-1.2-.8-2.6-1.4-3.5-2.5-.6-.7-.6-2.1-.3-3.1.4-1.5,3.2-3,4.8-2.7.6.1,1.1.7,1.9,1.3h0Z"/>
  <path d="M58.4,16.2c.4-1.4.8-2.5,1.1-3.6.4-1.4,1.6-1.7,2.7-1.4,1.2.3,3,0,3,2.1,0,1.3.2,2.7,0,3.9-.3,2.1-3.1,3.6-4.7,2.5-1-.7-1.4-2.5-2-3.6h0ZM63.5,15.6c-.7-.7-1.1-1.2-1.6-1.7-.3.8-.7,1.5-.8,2.3,0,.5.5,1.1.7,1.7.5-.7,1-1.4,1.7-2.3h0Z"/>
  <path d="M97.1,12.5c-.3,1.2-.5,2.5-1,3.6-.7,1.6-3.4,1.4-4.5-.3-1.4-2.2-.9-5.9,1.2-7.6.3-.3,1.3-.5,1.5-.2,1.1,1.3,2.2,2.8,3.2,4.2-.1.1-.2.2-.4.4h0ZM93.3,15.9c2.1-1.6,1.9-3.4,1.5-5.1-.1-.5-1-.9-1.5-1.3-.3.5-1.1,1.1-1,1.5.2,1.7.7,3.3,1,5Z"/>
  <path d="M4,15.7c0-2.6.9-5.2,2.4-7.5.8-1.2,2.2-.5,2.7.3,1.2,1.9,2.1,4,3.3,6.2-3.1.4-5.7.7-8.4,1h0ZM10.4,13.8c-.9-1.3-1.6-3.2-2.2-3.2-1.9,0-2.2,1.9-2.3,3.7,1.4-.2,2.7-.3,4.6-.6Z"/>
  <path class="st0" d="M82.2,3.6c-.7,0-1.5-.6-1.4-1.2,0-.7,1.3-.9,1.4-.9.4,0,.6,0,.6,0,.1.1.2.2.2.4,0,.1,0,.3,0,.6,0,0,0,0,0,0,0,.5,0,.5,0,.6,0,.2-.5.4-1,.3Z"/>
  <path class="st0" d="M33.3,5c-.5.2-.9.7-.9,1.3,0,.7.5,1.3,1.2,1.3.5,0,.9-.3.9-.4.3-.3.3-.6.3-.9,0-.3-.1-.6-.1-.6h0c-.2-.2-.4-.5-.6-.7"/>
</svg>