<?xml version="1.0" encoding="UTF-8"?>
<svg id="Layer_1" xmlns="http://www.w3.org/2000/svg" version="1.1" viewBox="0 0 135.1 29.9">
  <!-- Generator: Adobe Illustrator 29.1.0, SVG Export Plug-In . SVG Version: 2.1.0 Build 142)  -->
  <defs>
    <style>
      .st0 {
        fill: #070707;
      }

      .st1 {
        stroke: #000;
        stroke-miterlimit: 10;
      }

      .st1, .st2 {
        fill: #fff;
      }

      .st3 {
        fill: #f0f0f0;
      }
    </style>
  </defs>
  <path class="st0" d="M63.2,21.6c-1,2.2-1.5,2.5-3.4,1.6-.4-.2-.5-.1-.8,0-1.7,1.1-3.6,0-4.2-1.8-.5-1.6-1-3.2-1.6-4.8-.4,1.2-.2,2.5,0,3.7.2,1.4.4,2.7-1.2,3.4-1.3.5-3.4-.5-4.2-1.9,0-.1-.1-.2-.2-.4,0,0-.2,0-.2,0-2.3,1-2.7,2.5-1.9,4.9.6,1.7,0,3-1.2,3.4-1.3.4-3.4-.6-3.9-2-.4-1-.7-2.2-1-3.3-.3-1.2-1.3-1.5-2.2-.7-1.7,1.4-3.7,1.6-5.7,1.3-1.5-.2-2.1-1.3-2.2-2.8,0-1.8.2-3.5.5-5.5-1,.6-1.2,1.5-1.3,2.4-.2,1.3,0,2.6.2,3.9.2,1.7-1,2.7-2.7,2.1-1.5-.5-2.8-1.4-2.9-3.2,0-1.2-.3-2.3-.5-3.6-.7.3-1,1-1.7,1.1-.6,0-.7.5-.6,1.1.4,2.7-1,4.5-3.3,5.6-3.4,1.6-7.1,2.4-10.9,1.2-.9-.3-1.7-.6-2.3-1.2C1.6,23.7-.1,21.1,0,17.5c.2-4.4,1.8-7.8,5.1-10.3,3.3-2.5,7-3.5,11-1.4.6.3,1,.7,1.4,1.2.8.9,1.3,2,.4,3.1-.9,1.1-2.1,1-3.3.4-3.8-1.8-5.9-1-7.3,3-.8,2.3-1.1,4.6-.6,7,.3,1.4,1,2.1,2.5,2,1.1,0,2.3-.1,3.4-.5,1.2-.4,1.5-1.6.5-2.4-.5-.4-1-.8-1.4-1.2-1.1-.9-.9-2.4.4-2.8,2.6-.8,5.2-1,7.9-.8.8,0,1.5.6,2.3,1.1.1-.9,0-1.7.3-2.5.5-1.2,1.7-1.6,2.5-.7.6.7,1,.5,1.6,0,.5-.3,1-.6,1.5-.9,1.9-.9,2.8-.4,3,1.8,2.5-1,5-2.2,7.2.6,1.3-3.2,3.8-3.2,6.6-2.5,0-1.5,0-2.9,0-4.2,0-1.1.5-1.8,1.7-2.1,1.3-.2,2,.3,2.4,1.4.5,1.3.6,2.8.8,4.4,1.4-.7,2.7-1.3,4.3-1.2,1.8.1,2.3,1.6,3.3,2.7,1-1.1,2.3-1.4,3.5-.3.9.8,1,.3,1.3-.4.9-2.6,2.4-3.5,4.6-3.1,2.1.4,3.5,2.1,3.3,3.9-.2,1.2-.7,1.5-1.6.7-1.3-1.1-1.6-.2-1.9.8-.2.6-.3,1.3-.3,2,0,1.6.8,2.2,2.4,2.3,2.4,0,3.3,1.6,2,3.6-1.7,2.8-4.2,3.1-6.6.8-.4-.4-.7-.7-1.1-1.2h0ZM3.8,18.5c0-3.1.6-5.9,3.2-7.9,1.8-1.3,3.5-3.2,6.1-2.8.9.1,1.8.5,2.6.9.3.1.6.1.8-.2,0-.2,0-.4-.2-.5-1.6-.8-3.2-1.7-5-1.1-3.1,1.1-5.8,2.8-7.5,5.7-1.3,2.3-1.4,4.8-1.3,7.3.1,2,1.2,3.5,3,4.4,1.8.9,3.8,1.5,5.9,1.6,3.4.2,6.6-2.5,7-5.8.1-1-.3-2.4,1-3.1.3-.2.2-.8-.2-.8-1.7,0-3.4-.4-5,.4-.3.1-.6.3-.5.7,0,.5.4.5.8.5.7,0,1.4,0,2.2-.1.3,0,.8-.2.8.4,0,1.4,0,2.9-1,4-1.6,1.8-3.6,3-6.3,2.4-3.8-.9-6.9-2.3-6.4-6h0ZM42.2,13.4c-2.1,0-2.4.3-2.2,2.4,0,1,.3,2,.3,3,.2,2.3.6,4.5.8,6.8,0,.6.4,1,.9.9.5,0,.5-.6.4-1-.3-1-.1-2-.4-2.9-.2-.9-.2-1.1.8-1.4,2.5-.7,3.8-2.9,3.4-5.3-.3-1.6-1.9-2.7-4-2.6h0ZM48.9,9.9c-.3.1-.4.2-.4.2-.2,3.3.9,6.6.9,9.9,0,.3.2.6.6.6.5,0,.5-.4.5-.8,0-1.1-.1-2.2.2-3.4.4-1.1,1.1-1.9,2.2-2,1.3-.1,1.6,1.1,1.9,2.1.3.8.3,1.7.5,2.5,0,.3.2.8.7.7.4,0,.5-.5.5-.9,0-1.7-.4-3.4-1.5-4.7-1-1.1-2.4-1.4-3.6-.5-.5.4-1,1-1.5,1.6-.4-1.8-.7-3.5-1.1-5.3h0ZM39.7,20.6c-1.9-.8-2.2-1.1-2.5-3.5-.2-1.2-1.2-1.4-2-1.9-.6-.4-1.5-.1-2.1.6-1.1,1.5-1.5,3.1-1.3,4.9,0,.7.5,1.3,1.2,1.5.8.2,1.3-.2,1.8-.7.3-.3.6-.7.8-1.1.4-1,.8-1,1.4-.1.7.9,1.5,1.3,2.7.3h0ZM66.6,12.2c.5-.7,0-1.2-.4-1.5-.7-.4-1.3,0-1.8.5-2.5,2.1-2.1,7.5.7,9.2,1,.6,1.8.1,2.5-.4.3-.2.3-.6.2-.9,0-.3-.5-.2-.7-.1-1.6,1.1-2.1-.2-2.7-1.1-1.1-1.7-.8-3.5,0-5.2.5-.9,1.1-1.6,2.1-.5ZM25.7,16.3c-.4-.4.1-1.4-.8-1.3-.6,0-.3.9-.3,1.3,0,1.3.2,2.6.4,4,0,.5,0,1.4,1,1.1.9-.3.5-1.3.4-1.5-.9-.9-.2-1.5.1-2.2.3-.7.8-1.3,1.4-1.8.5-.4,1.4-.7.9-1.4-.6-.8-1.1.3-1.6.6-.6.3-.9,1-1.6,1.2ZM59.6,14.7c.2,2,.4,3.6.6,5.3,0,.4.2.8.8.8.6,0,.5-.6.5-1-.3-1.6-.6-3.3-.9-4.9,0-.4,0-.8-.6-.7-.5.1-.3.6-.3.5h0Z"/>
  <path class="st0" d="M118.3,19.3c-.9-.3-1.9-.5-2.6-1.4-.7,1-.4,2.5-1.8,2.9-1.3.4-2.3-.4-3.1-1.4-.6.7-1,1.4-1.6,1.9-1.5,1.6-3.6,1.9-5.8.6-.8-.5-1.3-.6-2.1.2-2.1,2.1-6.7,2.3-8.5-1-.6-1-1.2-1.9-1.5-3.1-.6.2-.9.8-1.2,1.2-1.3,1.9-3.3,2.9-5.1,4.2-1.3,1-3.2-.3-3.7-2.3-.6-2.5-1-4.9-1.4-7.4-.4-2.8-1.1-5.6-1.2-8.4,0-.8,0-1.5,0-2.3.3-2.1,1.4-3.1,3.5-3,6.1.1,8.9,2.2,11.3,8.5.9-.4,1.8-.9,2.8-1.1,1.2-.2,2.2,0,2.9.9.5.7.8.6,1.4,0,1.8-1.7,4.3-1.6,6.1.2.8.8,1.5,1.5,1.7,2.6,0,1.2-1.1,1.3-2,1.7.9.3,1.7.6,2.5.8,0-.8,0-1.5.1-2.2,1-1.4,2-1.9,3.5-1.1.7.4.6.1.9-.3,1.4-2.6,4-3.7,6.8-2.7.5.2.6.1,1-.3,1.1-1.3,2.5-1.4,3.7-.1.4.5.7.5,1.3.3,2.3-.9,4.1-.1,5.8,1.6,2.4,2.4,2.7,5.4,3,8.5.1,1.4,0,2.9-1.6,3.5-1.9.6-3.5,0-4.6-1.8-.5.1-.3.8-.7.9-2.1.5-2.2,2.1-2.7,3.8-.8,2.9-2.4,3.6-5.3,2.9-.9-.2-1.9-.5-2.8-.9-1.4-.6-2-2-1.8-3.7.2-1.5,1.1-2.3,2.6-2.2.4.2.9.5,1.5.8.3-1.2-.7-1.2-1.5-1.2h0ZM81.4,6.2c.5,2.9,0,5.8.9,8.6.5,1.6.3,3.4.7,5.2.3,1.2,1.2,1.6,2.3.9.8-.5,1.5-1.2,2.4-1.7,4.1-2.4,5.6-8.9,3-12.3-1.8-2.3-4.4-3.1-7.1-3.7-1.8-.5-2.1,0-2.1,1.8v1.2h0ZM119.1,21.1c-.4.8,0,1.3.6,1.7.8.5,1.6.4,2.3,0,2.1-1.1,2.6-4.8,1-6.5-1.1-1.2-2.1-2.4-1.7-4.3.2-.8-1.4-2.5-2.3-2.6-1.4-.2-2.9.8-3.5,2.4-.6,1.8-.3,3.4,1,4.1,1.5.9,3,.6,4.2-.9.8,1,1.5,2.1,1.8,3.3.3,1.3,0,2.5-1,3.4-1,.9-1.6-.3-2.4-.6h0ZM105.8,10.9c.2-1.1-.4-1.4-1.1-1.7-1.5-.5-3.7.7-4.2,2.3-.6,1.8.2,2.9,2.2,3.4,1.2.3,2.5.6,3.3,1.7.4.6,1,1.2.3,1.9-.6.6-1.4.6-2.1.2-.3-.2-.4-.5-.8,0-.2.3-.2.5,0,.8.7,1,2.5.9,3.9-.2,1.1-.9.9-1.7,0-2.9-1.2-1.7-3-2.2-4.8-2.8-1.4-.4-1.7-1.4-.8-2.5,1-1.2,2.4-1.4,3.9-.3h0ZM93.9,16.5c-.1,1,.2,2.2.8,3.2.8,1.5,2.8,2,4.2,1.1.4-.2.9-.6.7-1.1-.2-.6-.7-.1-1,0-1.8.5-2.8.1-3.2-1.5-.6-2-.2-2.7,1.7-3.3.4-.1.9-.3,1.3-.5.9-.5,1.7-1.1,1.3-2.2-.3-1.1-1.2-1.6-2.4-1.6-1.2,0-1.9.7-2.4,1.7-.6,1.2-.8,2.6-.8,4.2h0ZM125.3,11.9c-.1-.4-.3-.6-.3-.8,0-.4,0-.8-.4-.8-.4,0-.4.5-.4.9.4,2.2.8,4.4,1.3,6.6,0,.3.2.5.5.5s.4-.3.4-.5c0-.8,0-1.6-.2-2.5-.2-1.1-.2-2.2.1-3.4.2-.8.7-1.5,1.4-1.6.9-.2,1.2.7,1.6,1.2,1,1.5,1.3,3.3,1.6,5,0,.4,0,1.1.6,1,.6,0,.4-.7.4-1-.1-2.4-.9-4.6-2.4-6.5-.8-1-2.2-1-3.1-.2-.6.5-1,1.1-1.2,2h0ZM97.7,17c.9.7,2.2-.2,2.9.4,1.1.9,1.7.2,2.4-.3.3-.2.6-.4.9-.6-.4-.2-.7-.3-1.1-.5-1.9-1-3.4.8-5.1.9h0ZM111.6,12.5c-.4,0-.7.2-.7.5,0,1.7.2,3.3.4,5,0,.3.2.6.6.6.5,0,.5-.7,1-.9.2,0,.3-.7-.2-.9-.7-.3-.6-.9-.6-1.4,0-1-.3-1.9-.5-2.9h0ZM127.9,11.8c-.3,1.5-.8,3,.6,4.3-.2-1.5.3-3-.6-4.3Z"/>
  <path class="st0" d="M60.5,6.9c0,1.1-.6,2-1.8,2.1-1.1.1-2.4-1.1-2.4-2.1s1.6-1.9,1.8-2c.3-.1.6-.1.6-.1.5,0,.9.2,1,.3.5.4.7,1.1.8,1.8h0Z"/>
  <path class="st0" d="M109.5,7.7c0-1.1.3-1.8,1.5-1.8.9,0,1.3.7,1.3,1.4,0,.9-.3,1.8-1.5,1.8-1,0-1.3-.6-1.3-1.4Z"/>
  <path class="st3" d="M118.3,19.8v-.4"/>
  <path class="st3" d="M3.8,18.5c-.5,3.7,2.6,5.1,6.4,6,2.6.6,4.7-.6,6.3-2.4,1-1,.9-2.6,1-4,0-.6-.5-.4-.8-.4-.7,0-1.4.1-2.2.1-.4,0-.8,0-.8-.5,0-.4.2-.5.5-.7,1.6-.8,3.3-.4,5-.4.5,0,.5.6.2.8-1.4.8-.9,2.1-1,3.1-.5,3.3-3.6,5.9-7.1,5.8-2.1-.1-4-.8-5.9-1.6-1.8-.9-2.9-2.4-3-4.4-.1-2.5,0-5,1.3-7.3,1.7-3,4.4-4.6,7.5-5.7,1.8-.6,3.4.3,5,1.1.2.1.3.3.2.5-.1.4-.5.4-.8.2-.9-.4-1.7-.7-2.6-.9-2.7-.3-4.3,1.5-6.1,2.8-2.7,1.9-3.3,4.8-3.2,7.9Z"/>
  <path class="st3" d="M42.2,13.4c2.1,0,3.7,1.1,4,2.7.4,2.4-.9,4.6-3.4,5.3-1,.3-1,.5-.8,1.4.3.9,0,1.9.4,2.9.1.4,0,1-.4,1-.5,0-.8-.3-.9-.9-.2-2.3-.7-4.5-.8-6.8,0-1-.3-2-.3-3-.2-2.1.1-2.4,2.2-2.4h0ZM45.3,16.9c0-1.8-2.3-3.3-4-2.6-.4.2-.6.4-.5.8.2,1.5.3,2.9.6,4.4,0,.3.2,1,1,.9,1.6-.3,3-1.9,3-3.4h0Z"/>
  <path class="st3" d="M48.9,9.9c.4,1.8.7,3.5,1.1,5.3.5-.6,1-1.2,1.5-1.6,1.2-.9,2.6-.6,3.6.5,1.2,1.4,1.4,3,1.5,4.7,0,.4,0,.8-.5.9-.4,0-.6-.4-.7-.7-.2-.8-.2-1.7-.5-2.5-.3-.9-.6-2.2-1.9-2.1-1.1,0-1.8.9-2.2,2-.4,1.1-.2,2.2-.2,3.4,0,.4,0,.8-.5.8-.4,0-.6-.3-.6-.6,0-3.3-1.2-6.5-.9-9.9,0,0,0,0,.4-.2h0Z"/>
  <path class="st3" d="M39.7,20.6c-1.2,1-2,.6-2.7-.3-.6-.8-1-.8-1.4.1-.2.4-.4.8-.8,1.1-.5.5-1,.9-1.8.7-.7-.2-1.1-.8-1.2-1.5-.2-1.8.2-3.4,1.3-4.9.5-.7,1.5-1,2.1-.6.7.5,1.8.6,2,1.9.3,2.4.6,2.7,2.5,3.5h0ZM33,19.9c.2.3-.3,1,.3,1.2.7.2,1-.5,1.2-.9.5-.9.9-1.9,1-2.9,0-.4.2-.9-.3-1-.5-.1-.9,0-1.3.4-.8.9-1,2-1,3.3Z"/>
  <path class="st3" d="M66.6,12.2c-1-1.1-1.6-.5-2.1.5-.9,1.7-1.2,3.5,0,5.2.6,1,1.1,2.3,2.7,1.1.2-.1.6-.2.7.1,0,.3.1.7-.2.9-.8.5-1.6,1-2.5.4-2.8-1.8-3.2-7.1-.7-9.2.5-.4,1.1-.9,1.8-.5.5.3.9.7.4,1.5Z"/>
  <path class="st3" d="M25.7,16.3c.7-.2,1-.9,1.6-1.2.5-.3,1-1.4,1.6-.6.5.6-.4,1-.9,1.4-.6.5-1.1,1.1-1.4,1.8-.3.7-1,1.4-.1,2.2.2.2.6,1.2-.4,1.5-1,.3-1-.7-1-1.1-.2-1.3-.3-2.6-.4-4,0-.5-.3-1.2.3-1.3.9-.1.4.9.8,1.3Z"/>
  <path class="st3" d="M59.6,14.7c0,0-.2-.4.3-.5.5-.1.5.3.6.7.3,1.7.6,3.3.9,4.9,0,.4.1.9-.5,1-.5,0-.7-.4-.8-.8-.2-1.6-.4-3.2-.6-5.3h0Z"/>
  <path class="st3" d="M81.4,6.2v-1.2c0-1.9.3-2.3,2.1-1.8,2.6.7,5.3,1.5,7.1,3.7,2.7,3.3,1.1,9.9-3,12.3-.8.5-1.6,1.2-2.4,1.7-1.1.7-2,.3-2.3-.9-.4-1.7-.2-3.5-.7-5.1-.8-2.9-.4-5.8-.9-8.6h0ZM84.4,4.6h0c-.6-.5-1.3-.5-2-.8.2,2.5.3,4.9.6,7.2.3,2.7.6,5.4.9,8.1,0,.9.4.9,1,.4.9-.7,1.8-1.4,2.7-2,3-2,5-8.7.4-11.4-1.1-.7-2.3-1.4-3.6-1.6h0Z"/>
  <path class="st3" d="M119.1,21.1c.8.3,1.4,1.6,2.4.6.9-.9,1.3-2.1,1-3.4s-1-2.3-1.8-3.4c-1.2,1.4-2.7,1.8-4.2.9-1.2-.7-1.6-2.3-1-4.1.6-1.6,2.1-2.7,3.5-2.4.9.1,2.5,1.8,2.3,2.6-.4,1.8.6,3.1,1.7,4.3,1.6,1.7,1,5.4-1,6.5-.8.4-1.6.5-2.3,0-.6-.4-1-.9-.6-1.7h0ZM116.4,13.4c0,1.2.4,1.8,1.8,1.9,1.5,0,1.8-.9,1.9-2.1.1-1.3-.8-2.9-1.4-2.9-1.3,0-2.3,1.4-2.3,3.1Z"/>
  <path class="st3" d="M105.8,10.9c-1.6-1.1-3-1-3.9.3-.9,1.2-.6,2.1.8,2.5,1.8.5,3.6,1.1,4.8,2.8.9,1.2,1,2,0,2.9-1.3,1.1-3.2,1.1-3.9.2-.2-.3-.2-.5,0-.8.3-.5.4-.1.8,0,.7.4,1.5.5,2.1-.2.7-.7.2-1.3-.3-1.9-.8-1.1-2.1-1.4-3.3-1.7-2.1-.5-2.8-1.7-2.2-3.4.5-1.6,2.7-2.8,4.2-2.3.7.2,1.3.6,1.1,1.7h0Z"/>
  <path class="st3" d="M93.9,16.5c0-1.6.2-2.9.8-4.2.5-1,1.2-1.7,2.4-1.7,1.1,0,2,.6,2.4,1.6.3,1.1-.4,1.7-1.3,2.2-.4.2-.8.4-1.3.5-1.9.6-2.2,1.3-1.7,3.3.5,1.6,1.4,2.1,3.2,1.5.4-.1.8-.5,1,0,.2.5-.2.8-.7,1.1-1.4.8-3.3.3-4.2-1.1-.6-1-.9-2.2-.8-3.2h0ZM95.2,14.4c.9-.3,1.6-.4,2.2-.7.5-.2,1.1-.4,1.1-1.1,0-.3-.3-.6-.7-.7-.6-.2-1.2-.2-1.7.3-.5.6-.7,1.3-.9,2.3h0Z"/>
  <path class="st3" d="M125.3,11.9c.2-.9.6-1.5,1.2-2,1-.9,2.4-.9,3.1.2,1.4,1.9,2.3,4.1,2.4,6.5,0,.4.2,1-.4,1-.7,0-.6-.5-.6-1-.3-1.8-.7-3.5-1.6-5.1-.4-.6-.6-1.4-1.6-1.2-.8.2-1.2.9-1.4,1.6-.3,1.1-.3,2.2-.1,3.4.1.8.1,1.6.2,2.5,0,.3,0,.5-.4.5s-.5-.1-.5-.5c-.4-2.2-.8-4.4-1.3-6.6,0-.4,0-.8.4-.9.5,0,.4.4.4.8s.1.4.3.8h0Z"/>
  <path class="st3" d="M111.6,12.5c.2,1,.5,1.9.5,2.9,0,.5,0,1.1.6,1.4.5.2.3.8.2.9-.4.2-.4.9-1,.9-.4,0-.6-.3-.6-.6-.2-1.7-.3-3.3-.4-5,0-.3.3-.5.7-.5h0Z"/>
  <path class="st0" d="M45.3,16.9c0,1.5-1.4,3.1-3,3.4-.8.2-.9-.5-1-.9-.3-1.4-.4-2.9-.6-4.4,0-.4,0-.6.5-.8,1.7-.7,4,.8,4,2.6h0ZM42.5,15.5c.3,1,.6,1.8.9,2.7,1.1-1.3,1.1-1.5-.9-2.7Z"/>
  <path class="st0" d="M33,19.9c0-1.3.2-2.4,1-3.3.3-.4.8-.5,1.3-.4.5.2.4.7.3,1-.1,1-.5,2-1,2.9-.3.5-.5,1.2-1.2.9-.6-.2-.2-.9-.3-1.2Z"/>
  <path class="st0" d="M84.5,4.5c1.3.2,2.5.9,3.6,1.6,4.6,2.7,2.6,9.5-.4,11.5-.9.6-1.8,1.3-2.7,2-.7.5-.9.5-1-.4-.3-2.7-.6-5.4-.9-8.1-.2-2.4-.4-4.8-.6-7.2.7.2,2.9,1,3.4,1.5-.6,3.7-1,6.5-.5,10.1,0,.3,0,1.9.4,1.9.3,0,.5-1.6.6-1.9.3-1,.6-2,.7-3.1.1-2.9-.9-5.4-2.6-7.7Z"/>
  <path class="st0" d="M116.4,13.4c0-1.6,1-3,2.3-3.1.7,0,1.6,1.6,1.4,2.9-.1,1.1-.5,2.1-1.9,2.1-1.3,0-1.9-.7-1.8-1.9ZM118.8,13.3c-.4-.4.3-1.5-.7-1.7-.6-.1-.8.4-.8,1.1,0,.8.6,1.2,1.2,1.4.4.1.4-.3.4-.7h0Z"/>
  <path class="st0" d="M95.2,14.4c.2-1,.4-1.7.9-2.3.5-.6,1.1-.5,1.7-.3.4.1.7.4.7.7,0,.7-.6.9-1.1,1.1-.6.3-1.3.4-2.2.7h0Z"/>
  <path class="st1" d="M58.3,7.7"/>
  <path class="st2" d="M57.5,7.7c-.2-.2-.2-.5-.2-.7,0-.2,0-.4,0-.6.1-.5.7-.8,1.1-.9.2,0,.6,0,.9.1.3.2.4.5.5.7.1.3.1.5.1.6,0,.2,0,.4,0,.6-.3.6-1.3.7-1.9.4,0,0-.3-.1-.4-.3Z"/>
  <path class="st2" d="M110.5,8.3c-.4-.1-.7-.5-.7-.9,0-.5.6-.9,1.1-.8.5,0,.9.6.8,1.1,0,.3-.3.6-.7.7"/>
</svg>