<?xml version="1.0" encoding="UTF-8"?>
<svg id="Layer_1" xmlns="http://www.w3.org/2000/svg" version="1.1" viewBox="0 0 91.1 30.9">
  <!-- Generator: Adobe Illustrator 29.1.0, SVG Export Plug-In . SVG Version: 2.1.0 Build 142)  -->
  <defs>
    <style>
      .st0 {
        stroke: #000;
        stroke-miterlimit: 10;
      }

      .st0, .st1 {
        fill: #fff;
      }
    </style>
  </defs>
  <path d="M8.5,15.4c.9-2.5,1.7-4.6,2.5-6.7.6-1.3,1.2-2.7,2-3.9,1-1.5,3.1-1.4,3.6.3.5,1.5.9,3.3.6,4.8-1.4,5.8-3.1,11.6-4.7,17.4-.2.8-.7,1.6-1.2,2.3-1,1.7-3.1,1.9-4.2.3-1-1.4-1.8-3.1-2.4-4.7C3.2,20.3,1.7,15.4.4,10.6,0,8.9,0,7.2,0,5.5c0-.7,1-1.7,1.7-1.8.8,0,1.9.5,2.5,1.2,2.1,2.3,2.9,5.2,3.6,8.1.2.7.4,1.3.7,2.4ZM8.7,26.4c.2,0,.5,0,.7-.1,3.3-5.3,4.5-11.4,5.6-17.4,0-.3-.5-.8-.8-1.2-.4.3-.9.6-1.1,1-.3.8-.3,1.7-.6,2.5-1.1,3.7-2.3,7.3-3.6,11.3-1.5-4.7-2.9-9.1-4.3-13.4-.2-.6-.7-1.1-1.1-1.6-.2-.2-.6-.3-.9-.2-.2.1-.5.5-.5.8,0,.5.2,1,.4,1.5.9,2.8,1.8,5.5,2.8,8.3,1,2.9,2.2,5.7,3.3,8.6h0Z"/>
  <path d="M83.9,11.4c1.4.9,2.9,1.6,4.2,2.6,1,.8,2.1,1.8,2.5,3,1.3,3.8-.6,6.8-3.1,9.3-2,1.9-4.8,2.2-7.3,1.1-1.5-.7-3-2-3.9-3.4-.5-.8-.2-2.6.5-3.5.8-1.2,2.3-.8,3.4.1.4.3.7.9,1.2,1,1,.3,2.1.6,3.1.5.4,0,1-1.5.8-1.9-.4-.8-1.2-1.6-2-2.1-1.3-.7-2.8-1-4.2-1.6-2.3-1.2-3.1-3.2-2.9-5.7.2-2.5,1.7-4.1,3.9-4.8,2.6-.9,5.2-1.6,8.1-.6,1.9.7,2.8,1.5,2.4,3.2-.4,1.7-2.4,3.3-3.9,3-.9-.1-1.8-.3-2.7-.4v.4h0ZM87.8,8.2c-.8-.7-1.1-1.4-1.5-1.4-1.4,0-2.9,0-4.3.3-2.2.5-2.6,2.4-2.8,4.3-.1,2,1,3.1,2.7,3.6.9.3,1.8.6,2.7.9,1.4.4,2.8,1.4,2.7,2.8,0,1.5-.7,3.2-1.7,4.2-1.6,1.8-2.9,1.5-5.5,0-.8-.5-1.7-.7-3-1.2.9,2.6,5.1,5.1,6.9,4.7.1,0,.3,0,.4,0,1-.7,2.1-1.4,3-2.2,3.2-3,2.1-8-1.9-9.6-.8-.3-1.8-.4-2.4-.9-.9-.6-2.7-.9-2.1-2.4.4-1.1,1.5-2.3,2.6-2.8.9-.5,2.3-.1,4.3-.1h0Z"/>
  <path d="M45.6,20c.4,2.4,1.8,2.9,4,2.6.6,0,1.2-.3,1.8-.4,1.4-.4,2.9-.2,3.1,1.3.2,1.1-.4,2.8-1.3,3.4-6,3.7-12.7-1.4-13-6.4-.3-4.7,1.1-8.8,4.6-11.8,1.3-1.1,3.8-1.1,5.7-.9,2.7.3,4.5,2.3,5.4,4.8,1.6,4.2-.9,6.9-5.2,7.5-1.7.2-3.4,0-5.1,0h0ZM52.2,24c-2.4-.3-4.5-.2-6.2-1-2.2-1.1-1.2-3.4-1.3-5.4,2.1,0,3.9,0,5.8,0,2,0,4-1.9,3.8-3.3-.3-2-2.2-3.6-4.5-4-2.4-.4-4.9.6-5.6,2.6-.7,2.2-1.4,4.5-1.5,6.7-.2,4.6,3.6,7.2,8,5.8.5-.2.9-.9,1.4-1.4h0Z"/>
  <path d="M39.3,20.6v3.1c0,3.5-1.3,5.4-4.5,6.4-.8.2-2-.3-2.9-.7-5.3-2-6.6-8.7-3.8-13.5.5-.9,1.6-1.8,2.5-2.1,1.7-.6,1.7-1.6,1.6-3.1-.3-2.4-.3-4.8-.4-7.2,0-.2,0-.5,0-.6C32.6,2,33.4,1,34.2,0c.9.8,2.1,1.4,2.7,2.4.6.9.7,2.1.8,3.2.6,5.1,1,10.2,1.5,15h0ZM34.3,15.4c-.9.2-2,.1-2.8.6-2,1.2-3.4,3.2-3.1,5.4.3,2,1.6,3.8,2.7,5.6.2.4,1.2.5,1.8.5,3.2-.4,4-1.3,3.8-4.6,0-1.1,0-2.3,0-3.4-.2-4.9-.4-9.7-.7-14.5,0-.6-.5-1.2-.8-1.8-.3.6-.9,1.2-.9,1.9,0,3.4,0,6.9,0,10.4h0Z"/>
  <path d="M73.9,17.5c0,3.5-1.4,6.4-3.7,8.9-2.1,2.4-7.1,2-9.5-.3-3.6-3.5-4.1-7.5-3.3-12.2.6-3.5,3.2-6.5,6.7-6.7,3.7-.2,7.9,2.8,8.9,6.3.4,1.3.6,2.7.8,4.1h0ZM58.8,17.8c.4,1.4.7,2.9,1.3,4.1,1,2,3,2.7,5.2,2.8,2,0,3.7-.5,4.5-2.3,1.4-3,1.9-6.2.4-9.4-1.1-2.5-3.4-3-5.8-3-2,0-3.5,1.1-4.2,2.9-.6,1.6-.9,3.3-1.4,5h0Z"/>
  <path d="M25.2,22.4c-.1,1.6-.1,3.1-.4,4.6-.3,1.4-1.2,2.4-2.9,2.2-1.5-.2-2.2-1.3-2.2-2.6,0-3.3.2-6.6.4-10,.1-1.4,1-2.4,2.5-2.3,1.5.1,1.9,1.2,2,2.5.1,1.9.3,3.7.5,5.5h0ZM21.8,21.8h0c0,1.1-.1,2.1,0,3.2,0,.5.6,1,1,1.5.3-.5,1-1.1,1-1.6,0-2.2-.2-4.3-.4-6.5,0-.3-.5-.6-.8-.9-.3.3-.7.6-.8.9,0,1.1,0,2.2,0,3.4h0Z"/>
  <path d="M22.3,11.2c-1.6-.1-2.4-1-2.5-2.4,0-1.5.7-2.4,2.2-2.5,1.5,0,2.2.7,2.3,2.2,0,1.5-.5,2.6-2.1,2.8Z"/>
  <path class="st1" d="M8.7,26.4c-1.1-2.9-2.3-5.7-3.3-8.6-1-2.7-1.9-5.5-2.8-8.3-.2-.5-.4-1-.4-1.5,0-.3.2-.7.5-.8.2,0,.7,0,.9.2.4.5.9,1,1.1,1.6,1.4,4.3,2.8,8.7,4.3,13.4,1.3-4,2.5-7.6,3.6-11.3.3-.8.3-1.7.6-2.5.1-.4.7-.6,1.1-.9.3.4.8.8.8,1.2-1.1,6-2.3,12.1-5.6,17.4-.2,0-.5,0-.7.1h0Z"/>
  <path class="st1" d="M87.8,8.2c-2,0-3.3-.4-4.3.1-1.1.5-2.2,1.7-2.6,2.8-.6,1.5,1.2,1.8,2.1,2.4.7.5,1.6.6,2.4.9,4,1.6,5.1,6.6,1.9,9.6-.9.9-2,1.5-3,2.2,0,0-.3,0-.4,0-1.7.4-6-2.1-6.9-4.7,1.3.5,2.2.8,3,1.2,2.6,1.6,3.8,1.9,5.5,0,1-1.1,1.6-2.8,1.7-4.2,0-1.4-1.2-2.4-2.7-2.8-.9-.3-1.8-.6-2.7-.9-1.8-.6-2.9-1.6-2.7-3.6.1-2,.6-3.8,2.8-4.3,1.4-.3,2.9-.3,4.3-.3.4,0,.8.7,1.5,1.4h0Z"/>
  <path class="st1" d="M52.2,24c-.5.5-.9,1.2-1.4,1.4-4.4,1.5-8.2-1.2-8-5.8,0-2.3.8-4.6,1.5-6.7.6-1.9,3.2-2.9,5.6-2.6,2.3.3,4.2,2,4.5,4,.2,1.4-1.8,3.2-3.8,3.3-1.9,0-3.7,0-5.8,0,.1,2-1,4.4,1.3,5.4,1.7.8,3.8.6,6.2,1h0ZM52.6,15.1c-1-2.4-2.4-3.3-4.4-3-2,.3-2.5,1.9-3.1,3.8,2.6-.3,5-.5,7.5-.8Z"/>
  <path class="st1" d="M34.3,15.4c0-3.5,0-6.9,0-10.4,0-.6.6-1.2.9-1.9.3.6.8,1.2.8,1.8.3,4.8.5,9.7.7,14.5,0,1.1,0,2.3,0,3.4.2,3.2-.5,4.2-3.8,4.6-.6,0-1.6,0-1.9-.5-1.1-1.8-2.4-3.6-2.7-5.5-.3-2.2,1.1-4.2,3.1-5.4.8-.5,1.9-.4,2.8-.6h0ZM34.3,24.6c.2-1.8.5-3.4.5-5s-.7-1.7-1.1-1.8c-.7,0-1.8.3-2.2.9-1.9,2.5-.8,5.1,2.8,5.9Z"/>
  <path class="st1" d="M58.8,17.8c.5-1.8.8-3.5,1.4-5.1.7-1.8,2.2-2.9,4.2-2.8,2.4,0,4.7.6,5.8,3,1.5,3.2,1,6.4-.4,9.4-.8,1.8-2.6,2.4-4.5,2.3-2.2,0-4.1-.8-5.2-2.8-.6-1.2-.9-2.7-1.3-4.1h0ZM69.4,17.3c0,0,.2-.1.3-.2-.6-1.4-1-2.9-1.8-4.2-1.2-1.9-4.7-1.9-5.8,0-1.2,1.9-1.5,3.9-1.3,6.1.2,2.1,2.1,3.9,4.2,4.1,2.1.2,3.1-.6,3.9-3.1.3-.9.4-1.8.6-2.7h0Z"/>
  <path class="st1" d="M21.8,21.8c0-1.1,0-2.3,0-3.4,0-.3.5-.6.8-.9.3.3.7.6.8.9.2,2.2.4,4.3.4,6.5,0,.5-.6,1.1-1,1.6-.4-.5-.9-1-1-1.5-.2-1,0-2.1,0-3.2h0,0Z"/>
  <path d="M52.6,15.1c-2.5.3-4.9.5-7.5.8.6-1.9,1.2-3.5,3.1-3.8,2-.3,3.4.6,4.4,3Z"/>
  <path d="M34.3,24.6c-3.6-.8-4.7-3.4-2.8-5.9.4-.6,1.5-1,2.2-.9.5,0,1.1,1.1,1.1,1.8,0,1.6-.3,3.2-.5,5ZM32.6,18.8c-.3,1.6-.5,2.9-.7,4.5,2.5-1.1,2.7-2.5.7-4.5Z"/>
  <path d="M69.4,17.3c-.2.9-.3,1.8-.6,2.7-.8,2.5-1.9,3.3-3.9,3.1-2.1-.2-3.9-2-4.2-4.1-.2-2.2.2-4.2,1.3-6.1,1.1-1.9,4.6-1.9,5.8,0,.8,1.3,1.2,2.8,1.8,4.2,0,0-.2.1-.3.2h0ZM65.1,12.7c-3.1,2.3-4,4.9-2.3,7,.6.8,2,1.5,2.8,1.3.9-.3,1.8-1.5,2-2.5.5-2.3-.5-4.2-2.4-5.8Z"/>
  <path class="st0" d="M21.5,9.7c-.6-.3-1.2-1.2-.9-1.9.3-.6,1.2-.7,1.8-.5.1,0,.6.2.9.7.2.4.1.9-.1,1.2-.3.5-.9.5-1,.6,0,0-.4,0-.6,0Z"/>
</svg>